<mxfile host="65bd71144e">
    <diagram id="GpANf77li3baw1R7QIYz" name="Page-1">
        <mxGraphModel dx="3803" dy="5560" grid="1" gridSize="10" guides="1" tooltips="1" connect="1" arrows="1" fold="1" page="1" pageScale="1" pageWidth="1100" pageHeight="850" background="#ffffff" math="0" shadow="0">
            <root>
                <mxCell id="0"/>
                <mxCell id="1" parent="0"/>
                <mxCell id="SRCQ-mJ2vQPZ1YFcp3_C-148" value="" style="rounded=0;whiteSpace=wrap;html=1;" parent="1" vertex="1">
                    <mxGeometry x="1200" y="-3080" width="1000" height="1360" as="geometry"/>
                </mxCell>
                <mxCell id="SRCQ-mJ2vQPZ1YFcp3_C-149" value="&lt;font style=&quot;font-size: 18px;&quot;&gt;Cas d&#39;Utilisation&lt;/font&gt;&lt;div&gt;&lt;font style=&quot;font-size: 18px;&quot;&gt;Hotel Management app&amp;nbsp;&lt;/font&gt;&lt;/div&gt;&lt;div&gt;&lt;span style=&quot;font-size: 18px;&quot;&gt;&lt;b&gt;&lt;u&gt;Guest &amp;amp; User&lt;/u&gt;&lt;/b&gt;&lt;/span&gt;&lt;/div&gt;" style="text;html=1;align=left;verticalAlign=middle;whiteSpace=wrap;rounded=0;" parent="1" vertex="1">
                    <mxGeometry x="1220" y="-3060" width="220" height="75" as="geometry"/>
                </mxCell>
                <mxCell id="SRCQ-mJ2vQPZ1YFcp3_C-150" value="&lt;div style=&quot;&quot;&gt;&lt;span style=&quot;color: light-dark(rgb(0, 0, 0), rgb(255, 255, 255)); font-size: 14px; white-space-collapse: preserve; background-color: rgb(255, 255, 255);&quot;&gt;&lt;font face=&quot;Nunito Sans, sans-serif&quot;&gt;autherization and authentification&lt;/font&gt;&lt;/span&gt;&lt;/div&gt;" style="ellipse;whiteSpace=wrap;html=1;fillColor=#6666FF;align=center;" parent="1" vertex="1">
                    <mxGeometry x="1990" y="-2485" width="180" height="60" as="geometry"/>
                </mxCell>
                <mxCell id="SRCQ-mJ2vQPZ1YFcp3_C-151" value="Guest" style="shape=umlActor;verticalLabelPosition=bottom;verticalAlign=top;html=1;outlineConnect=0;" parent="1" vertex="1">
                    <mxGeometry x="1140" y="-2870" width="30" height="60" as="geometry"/>
                </mxCell>
                <mxCell id="SRCQ-mJ2vQPZ1YFcp3_C-152" value="&lt;div style=&quot;text-align: start;&quot;&gt;&lt;font face=&quot;Nunito Sans, sans-serif&quot; color=&quot;#000000&quot;&gt;&lt;span style=&quot;font-size: 14px; white-space-collapse: preserve; background-color: rgb(255, 255, 255);&quot;&gt;register&lt;/span&gt;&lt;/font&gt;&lt;/div&gt;" style="ellipse;whiteSpace=wrap;html=1;fillColor=#99FFFF;" parent="1" vertex="1">
                    <mxGeometry x="1323.5" y="-2900" width="150" height="60" as="geometry"/>
                </mxCell>
                <mxCell id="SRCQ-mJ2vQPZ1YFcp3_C-153" value="&lt;div style=&quot;text-align: start;&quot;&gt;&lt;font face=&quot;Nunito Sans, sans-serif&quot; color=&quot;#000000&quot;&gt;&lt;span style=&quot;font-size: 14px; white-space-collapse: preserve; background-color: rgb(255, 255, 255);&quot;&gt;as user&lt;/span&gt;&lt;/font&gt;&lt;/div&gt;" style="ellipse;whiteSpace=wrap;html=1;fillColor=#99FFFF;" parent="1" vertex="1">
                    <mxGeometry x="1530" y="-2940" width="150" height="60" as="geometry"/>
                </mxCell>
                <mxCell id="SRCQ-mJ2vQPZ1YFcp3_C-154" value="&lt;div style=&quot;text-align: start;&quot;&gt;&lt;font face=&quot;Nunito Sans, sans-serif&quot; color=&quot;#000000&quot;&gt;&lt;span style=&quot;font-size: 14px; white-space-collapse: preserve; background-color: rgb(255, 255, 255);&quot;&gt;as hotel owner&lt;/span&gt;&lt;/font&gt;&lt;/div&gt;" style="ellipse;whiteSpace=wrap;html=1;fillColor=#99FFFF;" parent="1" vertex="1">
                    <mxGeometry x="1540" y="-2860" width="150" height="60" as="geometry"/>
                </mxCell>
                <mxCell id="SRCQ-mJ2vQPZ1YFcp3_C-155" value="&lt;div style=&quot;text-align: start;&quot;&gt;&lt;font face=&quot;Nunito Sans, sans-serif&quot; color=&quot;#000000&quot;&gt;&lt;span style=&quot;font-size: 14px; white-space-collapse: preserve; background-color: rgb(255, 255, 255);&quot;&gt;consulter les hotels&lt;/span&gt;&lt;/font&gt;&lt;/div&gt;" style="ellipse;whiteSpace=wrap;html=1;fillColor=#99FFFF;" parent="1" vertex="1">
                    <mxGeometry x="1323.5" y="-2810" width="150" height="60" as="geometry"/>
                </mxCell>
                <mxCell id="SRCQ-mJ2vQPZ1YFcp3_C-156" value="&lt;div style=&quot;text-align: start;&quot;&gt;&lt;font face=&quot;Nunito Sans, sans-serif&quot; color=&quot;#000000&quot;&gt;&lt;span style=&quot;font-size: 14px; white-space-collapse: preserve; background-color: rgb(255, 255, 255);&quot;&gt;search for hotel&lt;/span&gt;&lt;/font&gt;&lt;/div&gt;" style="ellipse;whiteSpace=wrap;html=1;fillColor=#99FFFF;" parent="1" vertex="1">
                    <mxGeometry x="1323.5" y="-2740" width="150" height="60" as="geometry"/>
                </mxCell>
                <mxCell id="SRCQ-mJ2vQPZ1YFcp3_C-157" value="&lt;div style=&quot;text-align: start;&quot;&gt;&lt;font face=&quot;Nunito Sans, sans-serif&quot; color=&quot;#000000&quot;&gt;&lt;span style=&quot;font-size: 14px; white-space-collapse: preserve; background-color: rgb(255, 255, 255);&quot;&gt;view hotel detail&lt;/span&gt;&lt;/font&gt;&lt;/div&gt;" style="ellipse;whiteSpace=wrap;html=1;fillColor=#CC99FF;" parent="1" vertex="1">
                    <mxGeometry x="1323.5" y="-2487" width="150" height="60" as="geometry"/>
                </mxCell>
                <mxCell id="SRCQ-mJ2vQPZ1YFcp3_C-158" value="&lt;div style=&quot;text-align: start;&quot;&gt;&lt;font face=&quot;Nunito Sans, sans-serif&quot; color=&quot;#000000&quot;&gt;&lt;span style=&quot;font-size: 14px; white-space-collapse: preserve; background-color: rgb(255, 255, 255);&quot;&gt;login&lt;/span&gt;&lt;/font&gt;&lt;/div&gt;" style="ellipse;whiteSpace=wrap;html=1;fillColor=#CC99FF;" parent="1" vertex="1">
                    <mxGeometry x="1326.5" y="-2567" width="150" height="60" as="geometry"/>
                </mxCell>
                <mxCell id="SRCQ-mJ2vQPZ1YFcp3_C-160" value="User" style="shape=umlActor;verticalLabelPosition=bottom;verticalAlign=top;html=1;outlineConnect=0;" parent="1" vertex="1">
                    <mxGeometry x="1120" y="-2317" width="30" height="60" as="geometry"/>
                </mxCell>
                <mxCell id="SRCQ-mJ2vQPZ1YFcp3_C-161" value="&lt;div style=&quot;text-align: start;&quot;&gt;&lt;font face=&quot;Nunito Sans, sans-serif&quot; color=&quot;#000000&quot;&gt;&lt;span style=&quot;font-size: 14px; background-color: rgb(255, 255, 255);&quot;&gt;book a room&lt;/span&gt;&lt;/font&gt;&lt;/div&gt;" style="ellipse;whiteSpace=wrap;html=1;fillColor=#CC99FF;" parent="1" vertex="1">
                    <mxGeometry x="1316.5" y="-2230" width="150" height="60" as="geometry"/>
                </mxCell>
                <mxCell id="SRCQ-mJ2vQPZ1YFcp3_C-162" value="&lt;div style=&quot;text-align: start;&quot;&gt;&lt;font face=&quot;Nunito Sans, sans-serif&quot; color=&quot;#000000&quot;&gt;&lt;span style=&quot;font-size: 14px; white-space-collapse: preserve; background-color: rgb(255, 255, 255);&quot;&gt;view booking history&lt;/span&gt;&lt;/font&gt;&lt;/div&gt;" style="ellipse;whiteSpace=wrap;html=1;fillColor=#CC99FF;" parent="1" vertex="1">
                    <mxGeometry x="1318" y="-2150" width="150" height="60" as="geometry"/>
                </mxCell>
                <mxCell id="SRCQ-mJ2vQPZ1YFcp3_C-163" value="&lt;div style=&quot;text-align: start;&quot;&gt;&lt;font face=&quot;Nunito Sans, sans-serif&quot; color=&quot;#000000&quot;&gt;&lt;span style=&quot;font-size: 14px; white-space-collapse: preserve; background-color: rgb(255, 255, 255);&quot;&gt;cancel booking&lt;/span&gt;&lt;/font&gt;&lt;/div&gt;" style="ellipse;whiteSpace=wrap;html=1;fillColor=#CC99FF;" parent="1" vertex="1">
                    <mxGeometry x="1329.5" y="-2060" width="150" height="60" as="geometry"/>
                </mxCell>
                <mxCell id="SRCQ-mJ2vQPZ1YFcp3_C-167" value="" style="endArrow=none;html=1;rounded=0;entryX=0;entryY=0.5;entryDx=0;entryDy=0;" parent="1" source="SRCQ-mJ2vQPZ1YFcp3_C-151" target="SRCQ-mJ2vQPZ1YFcp3_C-152" edge="1">
                    <mxGeometry width="50" height="50" relative="1" as="geometry">
                        <mxPoint x="1350" y="-2360" as="sourcePoint"/>
                        <mxPoint x="1400" y="-2410" as="targetPoint"/>
                    </mxGeometry>
                </mxCell>
                <mxCell id="SRCQ-mJ2vQPZ1YFcp3_C-168" value="" style="endArrow=none;html=1;rounded=0;entryX=0;entryY=0.5;entryDx=0;entryDy=0;" parent="1" source="SRCQ-mJ2vQPZ1YFcp3_C-151" target="SRCQ-mJ2vQPZ1YFcp3_C-155" edge="1">
                    <mxGeometry width="50" height="50" relative="1" as="geometry">
                        <mxPoint x="1160" y="-2473" as="sourcePoint"/>
                        <mxPoint x="1314" y="-2500" as="targetPoint"/>
                    </mxGeometry>
                </mxCell>
                <mxCell id="SRCQ-mJ2vQPZ1YFcp3_C-170" value="" style="endArrow=none;html=1;rounded=0;entryX=0;entryY=0.5;entryDx=0;entryDy=0;exitX=0.5;exitY=0.5;exitDx=0;exitDy=0;exitPerimeter=0;" parent="1" source="SRCQ-mJ2vQPZ1YFcp3_C-151" target="SRCQ-mJ2vQPZ1YFcp3_C-156" edge="1">
                    <mxGeometry width="50" height="50" relative="1" as="geometry">
                        <mxPoint x="1160" y="-2466" as="sourcePoint"/>
                        <mxPoint x="1325" y="-2426" as="targetPoint"/>
                    </mxGeometry>
                </mxCell>
                <mxCell id="SRCQ-mJ2vQPZ1YFcp3_C-173" value="" style="endArrow=classic;html=1;rounded=0;entryX=0.958;entryY=0.303;entryDx=0;entryDy=0;exitX=0;exitY=0.5;exitDx=0;exitDy=0;entryPerimeter=0;" parent="1" source="SRCQ-mJ2vQPZ1YFcp3_C-153" target="SRCQ-mJ2vQPZ1YFcp3_C-152" edge="1">
                    <mxGeometry width="50" height="50" relative="1" as="geometry">
                        <mxPoint x="1512" y="-2529.5" as="sourcePoint"/>
                        <mxPoint x="1436" y="-2490.5" as="targetPoint"/>
                    </mxGeometry>
                </mxCell>
                <mxCell id="SRCQ-mJ2vQPZ1YFcp3_C-174" value="" style="endArrow=classic;html=1;rounded=0;entryX=0.958;entryY=0.69;entryDx=0;entryDy=0;exitX=0;exitY=0.5;exitDx=0;exitDy=0;entryPerimeter=0;" parent="1" source="SRCQ-mJ2vQPZ1YFcp3_C-154" target="SRCQ-mJ2vQPZ1YFcp3_C-152" edge="1">
                    <mxGeometry width="50" height="50" relative="1" as="geometry">
                        <mxPoint x="1525" y="-2531" as="sourcePoint"/>
                        <mxPoint x="1464" y="-2500" as="targetPoint"/>
                    </mxGeometry>
                </mxCell>
                <mxCell id="SRCQ-mJ2vQPZ1YFcp3_C-175" value="" style="endArrow=none;html=1;rounded=0;entryX=0;entryY=0.5;entryDx=0;entryDy=0;" parent="1" source="SRCQ-mJ2vQPZ1YFcp3_C-160" target="SRCQ-mJ2vQPZ1YFcp3_C-161" edge="1">
                    <mxGeometry width="50" height="50" relative="1" as="geometry">
                        <mxPoint x="1160" y="-2271" as="sourcePoint"/>
                        <mxPoint x="1342" y="-2161" as="targetPoint"/>
                    </mxGeometry>
                </mxCell>
                <mxCell id="SRCQ-mJ2vQPZ1YFcp3_C-176" value="" style="endArrow=none;html=1;rounded=0;entryX=0;entryY=0.5;entryDx=0;entryDy=0;" parent="1" source="SRCQ-mJ2vQPZ1YFcp3_C-160" target="SRCQ-mJ2vQPZ1YFcp3_C-162" edge="1">
                    <mxGeometry width="50" height="50" relative="1" as="geometry">
                        <mxPoint x="1140" y="-2010" as="sourcePoint"/>
                        <mxPoint x="1318" y="-2007" as="targetPoint"/>
                    </mxGeometry>
                </mxCell>
                <mxCell id="SRCQ-mJ2vQPZ1YFcp3_C-177" value="" style="endArrow=none;html=1;rounded=0;entryX=-0.006;entryY=0.413;entryDx=0;entryDy=0;entryPerimeter=0;" parent="1" source="SRCQ-mJ2vQPZ1YFcp3_C-160" target="SRCQ-mJ2vQPZ1YFcp3_C-163" edge="1">
                    <mxGeometry width="50" height="50" relative="1" as="geometry">
                        <mxPoint x="1140" y="-2003" as="sourcePoint"/>
                        <mxPoint x="1330" y="-1909" as="targetPoint"/>
                    </mxGeometry>
                </mxCell>
                <mxCell id="SRCQ-mJ2vQPZ1YFcp3_C-180" value="&amp;lt;&lt;font style=&quot;font-size: 18px;&quot;&gt;include&lt;/font&gt;&amp;gt;" style="endArrow=block;dashed=1;endFill=0;endSize=12;html=1;rounded=0;entryX=0.037;entryY=0.712;entryDx=0;entryDy=0;exitX=1;exitY=0;exitDx=0;exitDy=0;entryPerimeter=0;" parent="1" source="SRCQ-mJ2vQPZ1YFcp3_C-161" target="SRCQ-mJ2vQPZ1YFcp3_C-150" edge="1">
                    <mxGeometry x="-0.0023" width="160" relative="1" as="geometry">
                        <mxPoint x="1442" y="-1979" as="sourcePoint"/>
                        <mxPoint x="1647" y="-1919" as="targetPoint"/>
                        <Array as="points"/>
                        <mxPoint as="offset"/>
                    </mxGeometry>
                </mxCell>
                <mxCell id="SRCQ-mJ2vQPZ1YFcp3_C-187" value="" style="endArrow=none;html=1;rounded=0;entryX=0;entryY=0.5;entryDx=0;entryDy=0;" parent="1" source="SRCQ-mJ2vQPZ1YFcp3_C-160" target="SRCQ-mJ2vQPZ1YFcp3_C-158" edge="1">
                    <mxGeometry width="50" height="50" relative="1" as="geometry">
                        <mxPoint x="1140" y="-2014" as="sourcePoint"/>
                        <mxPoint x="1298" y="-2057" as="targetPoint"/>
                    </mxGeometry>
                </mxCell>
                <mxCell id="SRCQ-mJ2vQPZ1YFcp3_C-188" value="&lt;div style=&quot;text-align: start;&quot;&gt;&lt;font face=&quot;Nunito Sans, sans-serif&quot; color=&quot;#000000&quot;&gt;&lt;span style=&quot;font-size: 14px; white-space-collapse: preserve; background-color: rgb(255, 255, 255);&quot;&gt;logout&lt;/span&gt;&lt;/font&gt;&lt;/div&gt;" style="ellipse;whiteSpace=wrap;html=1;fillColor=#CC99FF;" parent="1" vertex="1">
                    <mxGeometry x="1320" y="-2317" width="150" height="60" as="geometry"/>
                </mxCell>
                <mxCell id="SRCQ-mJ2vQPZ1YFcp3_C-190" value="" style="endArrow=none;html=1;rounded=0;entryX=0;entryY=0.5;entryDx=0;entryDy=0;" parent="1" source="SRCQ-mJ2vQPZ1YFcp3_C-160" target="SRCQ-mJ2vQPZ1YFcp3_C-188" edge="1">
                    <mxGeometry width="50" height="50" relative="1" as="geometry">
                        <mxPoint x="1140" y="-2024" as="sourcePoint"/>
                        <mxPoint x="1313" y="-2180" as="targetPoint"/>
                    </mxGeometry>
                </mxCell>
                <mxCell id="SRCQ-mJ2vQPZ1YFcp3_C-191" value="&amp;lt;&lt;font style=&quot;font-size: 18px;&quot;&gt;include&lt;/font&gt;&amp;gt;" style="endArrow=block;dashed=1;endFill=0;endSize=12;html=1;rounded=0;exitX=1;exitY=0.5;exitDx=0;exitDy=0;entryX=0;entryY=0.5;entryDx=0;entryDy=0;" parent="1" source="SRCQ-mJ2vQPZ1YFcp3_C-188" target="SRCQ-mJ2vQPZ1YFcp3_C-150" edge="1">
                    <mxGeometry x="-0.0023" width="160" relative="1" as="geometry">
                        <mxPoint x="1438" y="-2039" as="sourcePoint"/>
                        <mxPoint x="1950" y="-2180" as="targetPoint"/>
                        <Array as="points"/>
                        <mxPoint as="offset"/>
                    </mxGeometry>
                </mxCell>
                <mxCell id="SRCQ-mJ2vQPZ1YFcp3_C-192" value="" style="endArrow=none;html=1;rounded=0;entryX=0;entryY=0.5;entryDx=0;entryDy=0;" parent="1" source="SRCQ-mJ2vQPZ1YFcp3_C-160" target="SRCQ-mJ2vQPZ1YFcp3_C-157" edge="1">
                    <mxGeometry width="50" height="50" relative="1" as="geometry">
                        <mxPoint x="1140" y="-2024" as="sourcePoint"/>
                        <mxPoint x="1314" y="-2180" as="targetPoint"/>
                    </mxGeometry>
                </mxCell>
                <mxCell id="SRCQ-mJ2vQPZ1YFcp3_C-194" value="" style="rounded=0;whiteSpace=wrap;html=1;" parent="1" vertex="1">
                    <mxGeometry x="1210" y="-1500" width="950" height="1070" as="geometry"/>
                </mxCell>
                <mxCell id="SRCQ-mJ2vQPZ1YFcp3_C-195" value="&lt;font style=&quot;font-size: 18px;&quot;&gt;Cas d&#39;Utilisation&amp;nbsp;&lt;/font&gt;&lt;div&gt;&lt;font style=&quot;font-size: 18px;&quot;&gt;Hotel Management app&lt;/font&gt;&lt;/div&gt;&lt;div&gt;&lt;font style=&quot;font-size: 18px;&quot;&gt;&lt;b&gt;&lt;u&gt;Hotel Owner&lt;/u&gt;&lt;/b&gt;&lt;/font&gt;&lt;/div&gt;" style="text;html=1;align=left;verticalAlign=middle;whiteSpace=wrap;rounded=0;" parent="1" vertex="1">
                    <mxGeometry x="1230" y="-1465" width="276.5" height="65" as="geometry"/>
                </mxCell>
                <mxCell id="SRCQ-mJ2vQPZ1YFcp3_C-196" value="&lt;div style=&quot;&quot;&gt;&lt;span style=&quot;color: light-dark(rgb(0, 0, 0), rgb(255, 255, 255)); font-size: 14px; white-space-collapse: preserve; background-color: rgb(255, 255, 255);&quot;&gt;&lt;font face=&quot;Nunito Sans, sans-serif&quot;&gt;autherization and authentification&lt;/font&gt;&lt;/span&gt;&lt;/div&gt;" style="ellipse;whiteSpace=wrap;html=1;fillColor=#6666FF;align=center;" parent="1" vertex="1">
                    <mxGeometry x="1930" y="-1235" width="180" height="60" as="geometry"/>
                </mxCell>
                <mxCell id="SRCQ-mJ2vQPZ1YFcp3_C-203" value="&lt;div style=&quot;text-align: start;&quot;&gt;&lt;span style=&quot;font-family: &amp;quot;Nunito Sans&amp;quot;, sans-serif; font-size: 14px; text-align: center; white-space-collapse: preserve; background-color: rgb(255, 255, 255);&quot;&gt;view hotel statistic&lt;/span&gt;&lt;/div&gt;" style="ellipse;whiteSpace=wrap;html=1;fillColor=#CCFF99;" parent="1" vertex="1">
                    <mxGeometry x="1295.25" y="-1280" width="150" height="60" as="geometry"/>
                </mxCell>
                <mxCell id="SRCQ-mJ2vQPZ1YFcp3_C-204" value="&lt;div style=&quot;text-align: start;&quot;&gt;&lt;font face=&quot;Nunito Sans, sans-serif&quot; color=&quot;#000000&quot;&gt;&lt;span style=&quot;font-size: 14px; white-space-collapse: preserve; background-color: rgb(255, 255, 255);&quot;&gt;login&lt;/span&gt;&lt;/font&gt;&lt;/div&gt;" style="ellipse;whiteSpace=wrap;html=1;fillColor=#CCFF99;" parent="1" vertex="1">
                    <mxGeometry x="1295.25" y="-1370" width="150" height="60" as="geometry"/>
                </mxCell>
                <mxCell id="SRCQ-mJ2vQPZ1YFcp3_C-205" value="Hotel Owner" style="shape=umlActor;verticalLabelPosition=bottom;verticalAlign=top;html=1;outlineConnect=0;" parent="1" vertex="1">
                    <mxGeometry x="1100" y="-1180" width="30" height="60" as="geometry"/>
                </mxCell>
                <mxCell id="SRCQ-mJ2vQPZ1YFcp3_C-216" value="" style="endArrow=none;html=1;rounded=0;entryX=0;entryY=0.5;entryDx=0;entryDy=0;" parent="1" source="SRCQ-mJ2vQPZ1YFcp3_C-205" target="SRCQ-mJ2vQPZ1YFcp3_C-228" edge="1">
                    <mxGeometry width="50" height="50" relative="1" as="geometry">
                        <mxPoint x="1150" y="-840" as="sourcePoint"/>
                        <mxPoint x="1301.75" y="-1000" as="targetPoint"/>
                    </mxGeometry>
                </mxCell>
                <mxCell id="SRCQ-mJ2vQPZ1YFcp3_C-222" value="" style="endArrow=none;html=1;rounded=0;entryX=0;entryY=0.5;entryDx=0;entryDy=0;" parent="1" source="SRCQ-mJ2vQPZ1YFcp3_C-205" target="SRCQ-mJ2vQPZ1YFcp3_C-204" edge="1">
                    <mxGeometry width="50" height="50" relative="1" as="geometry">
                        <mxPoint x="1150" y="-844" as="sourcePoint"/>
                        <mxPoint x="1308" y="-887" as="targetPoint"/>
                    </mxGeometry>
                </mxCell>
                <mxCell id="SRCQ-mJ2vQPZ1YFcp3_C-223" value="&lt;div style=&quot;text-align: start;&quot;&gt;&lt;font face=&quot;Nunito Sans, sans-serif&quot; color=&quot;#000000&quot;&gt;&lt;span style=&quot;font-size: 14px; white-space-collapse: preserve; background-color: rgb(255, 255, 255);&quot;&gt;logout&lt;/span&gt;&lt;/font&gt;&lt;/div&gt;" style="ellipse;whiteSpace=wrap;html=1;fillColor=#CCFF99;" parent="1" vertex="1">
                    <mxGeometry x="1295.25" y="-1200" width="150" height="60" as="geometry"/>
                </mxCell>
                <mxCell id="SRCQ-mJ2vQPZ1YFcp3_C-224" value="" style="endArrow=none;html=1;rounded=0;entryX=0;entryY=0.5;entryDx=0;entryDy=0;" parent="1" source="SRCQ-mJ2vQPZ1YFcp3_C-205" target="SRCQ-mJ2vQPZ1YFcp3_C-223" edge="1">
                    <mxGeometry width="50" height="50" relative="1" as="geometry">
                        <mxPoint x="1150" y="-854" as="sourcePoint"/>
                        <mxPoint x="1323" y="-1010" as="targetPoint"/>
                    </mxGeometry>
                </mxCell>
                <mxCell id="SRCQ-mJ2vQPZ1YFcp3_C-225" value="&amp;lt;&lt;font style=&quot;font-size: 18px;&quot;&gt;include&lt;/font&gt;&amp;gt;" style="endArrow=block;dashed=1;endFill=0;endSize=12;html=1;rounded=0;exitX=1;exitY=0.5;exitDx=0;exitDy=0;entryX=0;entryY=0.5;entryDx=0;entryDy=0;" parent="1" source="SRCQ-mJ2vQPZ1YFcp3_C-223" target="SRCQ-mJ2vQPZ1YFcp3_C-196" edge="1">
                    <mxGeometry x="-0.0023" width="160" relative="1" as="geometry">
                        <mxPoint x="1448" y="-869" as="sourcePoint"/>
                        <mxPoint x="1960" y="-1010" as="targetPoint"/>
                        <Array as="points"/>
                        <mxPoint as="offset"/>
                    </mxGeometry>
                </mxCell>
                <mxCell id="SRCQ-mJ2vQPZ1YFcp3_C-226" value="" style="endArrow=none;html=1;rounded=0;entryX=0;entryY=0.5;entryDx=0;entryDy=0;" parent="1" source="SRCQ-mJ2vQPZ1YFcp3_C-205" target="SRCQ-mJ2vQPZ1YFcp3_C-203" edge="1">
                    <mxGeometry width="50" height="50" relative="1" as="geometry">
                        <mxPoint x="1150" y="-854" as="sourcePoint"/>
                        <mxPoint x="1324" y="-1010" as="targetPoint"/>
                    </mxGeometry>
                </mxCell>
                <mxCell id="SRCQ-mJ2vQPZ1YFcp3_C-227" value="&amp;lt;&lt;font style=&quot;font-size: 18px;&quot;&gt;include&lt;/font&gt;&amp;gt;" style="endArrow=block;dashed=1;endFill=0;endSize=12;html=1;rounded=0;exitX=1;exitY=0.5;exitDx=0;exitDy=0;entryX=0.039;entryY=0.341;entryDx=0;entryDy=0;entryPerimeter=0;" parent="1" source="SRCQ-mJ2vQPZ1YFcp3_C-203" target="SRCQ-mJ2vQPZ1YFcp3_C-196" edge="1">
                    <mxGeometry x="-0.0023" width="160" relative="1" as="geometry">
                        <mxPoint x="1473" y="-930" as="sourcePoint"/>
                        <mxPoint x="1970" y="-1000" as="targetPoint"/>
                        <Array as="points"/>
                        <mxPoint as="offset"/>
                    </mxGeometry>
                </mxCell>
                <mxCell id="SRCQ-mJ2vQPZ1YFcp3_C-228" value="&lt;div style=&quot;text-align: start;&quot;&gt;&lt;font face=&quot;Nunito Sans, sans-serif&quot; color=&quot;#000000&quot;&gt;&lt;span style=&quot;font-size: 14px; white-space-collapse: preserve; background-color: rgb(255, 255, 255);&quot;&gt;gerer hotel&lt;/span&gt;&lt;/font&gt;&lt;/div&gt;" style="ellipse;whiteSpace=wrap;html=1;fillColor=#CCFF99;" parent="1" vertex="1">
                    <mxGeometry x="1284.25" y="-1110" width="188.5" height="60" as="geometry"/>
                </mxCell>
                <mxCell id="SRCQ-mJ2vQPZ1YFcp3_C-229" value="&lt;div style=&quot;&quot;&gt;&lt;span style=&quot;color: light-dark(rgb(0, 0, 0), rgb(255, 255, 255)); font-size: 14px; white-space-collapse: preserve; background-color: rgb(255, 255, 255);&quot;&gt;&lt;font face=&quot;Nunito Sans, sans-serif&quot;&gt;remove&lt;/font&gt;&lt;/span&gt;&lt;/div&gt;" style="ellipse;whiteSpace=wrap;html=1;fillColor=#CCFF99;align=center;" parent="1" vertex="1">
                    <mxGeometry x="1314.25" y="-950" width="106.5" height="50" as="geometry"/>
                </mxCell>
                <mxCell id="SRCQ-mJ2vQPZ1YFcp3_C-230" value="&lt;div style=&quot;text-align: start;&quot;&gt;&lt;font face=&quot;Nunito Sans, sans-serif&quot; color=&quot;#000000&quot;&gt;&lt;span style=&quot;font-size: 14px; white-space-collapse: preserve; background-color: rgb(255, 255, 255);&quot;&gt;add hotel&lt;/span&gt;&lt;/font&gt;&lt;/div&gt;" style="ellipse;whiteSpace=wrap;html=1;fillColor=#CCFF99;" parent="1" vertex="1">
                    <mxGeometry x="1412" y="-990" width="150" height="60" as="geometry"/>
                </mxCell>
                <mxCell id="SRCQ-mJ2vQPZ1YFcp3_C-231" value="&lt;div style=&quot;&quot;&gt;&lt;span style=&quot;color: light-dark(rgb(0, 0, 0), rgb(255, 255, 255)); font-size: 14px; white-space-collapse: preserve; background-color: rgb(255, 255, 255);&quot;&gt;&lt;font face=&quot;Nunito Sans, sans-serif&quot;&gt;update hotel detail&lt;/font&gt;&lt;/span&gt;&lt;/div&gt;" style="ellipse;whiteSpace=wrap;html=1;fillColor=#CCFF99;align=center;" parent="1" vertex="1">
                    <mxGeometry x="1520" y="-1040" width="150" height="50" as="geometry"/>
                </mxCell>
                <mxCell id="SRCQ-mJ2vQPZ1YFcp3_C-232" value="" style="endArrow=classic;html=1;rounded=0;exitX=0.5;exitY=0;exitDx=0;exitDy=0;" parent="1" source="SRCQ-mJ2vQPZ1YFcp3_C-229" target="SRCQ-mJ2vQPZ1YFcp3_C-228" edge="1">
                    <mxGeometry width="50" height="50" relative="1" as="geometry">
                        <mxPoint x="1506.5" y="-970" as="sourcePoint"/>
                        <mxPoint x="1433.5" y="-999" as="targetPoint"/>
                    </mxGeometry>
                </mxCell>
                <mxCell id="SRCQ-mJ2vQPZ1YFcp3_C-233" value="" style="endArrow=classic;html=1;rounded=0;entryX=0.604;entryY=1.024;entryDx=0;entryDy=0;exitX=0.431;exitY=-0.015;exitDx=0;exitDy=0;exitPerimeter=0;entryPerimeter=0;" parent="1" source="SRCQ-mJ2vQPZ1YFcp3_C-230" target="SRCQ-mJ2vQPZ1YFcp3_C-228" edge="1">
                    <mxGeometry width="50" height="50" relative="1" as="geometry">
                        <mxPoint x="1343" y="-968" as="sourcePoint"/>
                        <mxPoint x="1353" y="-1029" as="targetPoint"/>
                    </mxGeometry>
                </mxCell>
                <mxCell id="SRCQ-mJ2vQPZ1YFcp3_C-234" value="" style="endArrow=classic;html=1;rounded=0;entryX=0.936;entryY=0.703;entryDx=0;entryDy=0;exitX=0;exitY=0;exitDx=0;exitDy=0;entryPerimeter=0;" parent="1" source="SRCQ-mJ2vQPZ1YFcp3_C-231" target="SRCQ-mJ2vQPZ1YFcp3_C-228" edge="1">
                    <mxGeometry width="50" height="50" relative="1" as="geometry">
                        <mxPoint x="1454" y="-965" as="sourcePoint"/>
                        <mxPoint x="1433" y="-1020" as="targetPoint"/>
                    </mxGeometry>
                </mxCell>
                <mxCell id="SRCQ-mJ2vQPZ1YFcp3_C-235" value="&amp;lt;&lt;font style=&quot;font-size: 18px;&quot;&gt;include&lt;/font&gt;&amp;gt;" style="endArrow=block;dashed=1;endFill=0;endSize=12;html=1;rounded=0;exitX=1;exitY=0.5;exitDx=0;exitDy=0;entryX=0.054;entryY=0.691;entryDx=0;entryDy=0;entryPerimeter=0;" parent="1" source="SRCQ-mJ2vQPZ1YFcp3_C-228" target="SRCQ-mJ2vQPZ1YFcp3_C-196" edge="1">
                    <mxGeometry x="-0.0023" width="160" relative="1" as="geometry">
                        <mxPoint x="1455" y="-1160" as="sourcePoint"/>
                        <mxPoint x="1970" y="-1000" as="targetPoint"/>
                        <Array as="points"/>
                        <mxPoint as="offset"/>
                    </mxGeometry>
                </mxCell>
                <mxCell id="SRCQ-mJ2vQPZ1YFcp3_C-236" value="" style="rounded=0;whiteSpace=wrap;html=1;" parent="1" vertex="1">
                    <mxGeometry x="1190" y="-365" width="950" height="1185" as="geometry"/>
                </mxCell>
                <mxCell id="SRCQ-mJ2vQPZ1YFcp3_C-237" value="&lt;font style=&quot;font-size: 18px;&quot;&gt;Cas d&#39;Utilisation&amp;nbsp;&lt;/font&gt;&lt;div&gt;&lt;font style=&quot;font-size: 18px;&quot;&gt;Hotel Management app&lt;/font&gt;&lt;/div&gt;&lt;div&gt;&lt;font style=&quot;font-size: 18px;&quot;&gt;&lt;b&gt;&lt;u&gt;Admin &amp;amp; Super Admin&lt;/u&gt;&lt;/b&gt;&lt;/font&gt;&lt;/div&gt;" style="text;html=1;align=left;verticalAlign=middle;whiteSpace=wrap;rounded=0;" parent="1" vertex="1">
                    <mxGeometry x="1220" y="-315" width="276.5" height="65" as="geometry"/>
                </mxCell>
                <mxCell id="SRCQ-mJ2vQPZ1YFcp3_C-238" value="&lt;div style=&quot;&quot;&gt;&lt;span style=&quot;color: light-dark(rgb(0, 0, 0), rgb(255, 255, 255)); font-size: 14px; white-space-collapse: preserve; background-color: rgb(255, 255, 255);&quot;&gt;&lt;font face=&quot;Nunito Sans, sans-serif&quot;&gt;autherization and authentification&lt;/font&gt;&lt;/span&gt;&lt;/div&gt;" style="ellipse;whiteSpace=wrap;html=1;fillColor=#6666FF;align=center;" parent="1" vertex="1">
                    <mxGeometry x="1950" y="20" width="180" height="60" as="geometry"/>
                </mxCell>
                <mxCell id="SRCQ-mJ2vQPZ1YFcp3_C-239" value="&lt;div style=&quot;text-align: start;&quot;&gt;&lt;span style=&quot;font-family: &amp;quot;Nunito Sans&amp;quot;, sans-serif; font-size: 14px; text-align: center; white-space-collapse: preserve; background-color: rgb(255, 255, 255);&quot;&gt;view global statistic&lt;/span&gt;&lt;/div&gt;" style="ellipse;whiteSpace=wrap;html=1;fillColor=#FF9999;" parent="1" vertex="1">
                    <mxGeometry x="1314.25" y="-140" width="150" height="60" as="geometry"/>
                </mxCell>
                <mxCell id="SRCQ-mJ2vQPZ1YFcp3_C-240" value="&lt;div style=&quot;text-align: start;&quot;&gt;&lt;font face=&quot;Nunito Sans, sans-serif&quot; color=&quot;#000000&quot;&gt;&lt;span style=&quot;font-size: 14px; white-space-collapse: preserve; background-color: rgb(255, 255, 255);&quot;&gt;login&lt;/span&gt;&lt;/font&gt;&lt;/div&gt;" style="ellipse;whiteSpace=wrap;html=1;fillColor=#FF9999;" parent="1" vertex="1">
                    <mxGeometry x="1311.25" y="-210" width="150" height="60" as="geometry"/>
                </mxCell>
                <mxCell id="SRCQ-mJ2vQPZ1YFcp3_C-241" value="Admin" style="shape=umlActor;verticalLabelPosition=bottom;verticalAlign=top;html=1;outlineConnect=0;" parent="1" vertex="1">
                    <mxGeometry x="1060" y="25" width="30" height="60" as="geometry"/>
                </mxCell>
                <mxCell id="SRCQ-mJ2vQPZ1YFcp3_C-243" value="" style="endArrow=none;html=1;rounded=0;entryX=0;entryY=0.5;entryDx=0;entryDy=0;" parent="1" source="SRCQ-mJ2vQPZ1YFcp3_C-241" target="SRCQ-mJ2vQPZ1YFcp3_C-240" edge="1">
                    <mxGeometry width="50" height="50" relative="1" as="geometry">
                        <mxPoint x="1260" y="306" as="sourcePoint"/>
                        <mxPoint x="1418" y="263" as="targetPoint"/>
                    </mxGeometry>
                </mxCell>
                <mxCell id="SRCQ-mJ2vQPZ1YFcp3_C-244" value="&lt;div style=&quot;text-align: start;&quot;&gt;&lt;font face=&quot;Nunito Sans, sans-serif&quot; color=&quot;#000000&quot;&gt;&lt;span style=&quot;font-size: 14px; white-space-collapse: preserve; background-color: rgb(255, 255, 255);&quot;&gt;logout&lt;/span&gt;&lt;/font&gt;&lt;/div&gt;" style="ellipse;whiteSpace=wrap;html=1;fillColor=#FF9999;" parent="1" vertex="1">
                    <mxGeometry x="1310" y="-70" width="150" height="60" as="geometry"/>
                </mxCell>
                <mxCell id="SRCQ-mJ2vQPZ1YFcp3_C-245" value="" style="endArrow=none;html=1;rounded=0;entryX=0;entryY=0.5;entryDx=0;entryDy=0;" parent="1" source="SRCQ-mJ2vQPZ1YFcp3_C-241" target="SRCQ-mJ2vQPZ1YFcp3_C-244" edge="1">
                    <mxGeometry width="50" height="50" relative="1" as="geometry">
                        <mxPoint x="1260" y="296" as="sourcePoint"/>
                        <mxPoint x="1433" y="140" as="targetPoint"/>
                    </mxGeometry>
                </mxCell>
                <mxCell id="SRCQ-mJ2vQPZ1YFcp3_C-246" value="&amp;lt;&lt;font style=&quot;font-size: 18px;&quot;&gt;include&lt;/font&gt;&amp;gt;" style="endArrow=block;dashed=1;endFill=0;endSize=12;html=1;rounded=0;exitX=1;exitY=0.5;exitDx=0;exitDy=0;entryX=0;entryY=0.5;entryDx=0;entryDy=0;" parent="1" source="SRCQ-mJ2vQPZ1YFcp3_C-244" target="SRCQ-mJ2vQPZ1YFcp3_C-238" edge="1">
                    <mxGeometry x="-0.0023" width="160" relative="1" as="geometry">
                        <mxPoint x="1558" y="281" as="sourcePoint"/>
                        <mxPoint x="2070" y="140" as="targetPoint"/>
                        <Array as="points"/>
                        <mxPoint as="offset"/>
                    </mxGeometry>
                </mxCell>
                <mxCell id="SRCQ-mJ2vQPZ1YFcp3_C-247" value="" style="endArrow=none;html=1;rounded=0;entryX=0;entryY=0.5;entryDx=0;entryDy=0;" parent="1" source="SRCQ-mJ2vQPZ1YFcp3_C-241" target="SRCQ-mJ2vQPZ1YFcp3_C-239" edge="1">
                    <mxGeometry width="50" height="50" relative="1" as="geometry">
                        <mxPoint x="1260" y="296" as="sourcePoint"/>
                        <mxPoint x="1434" y="140" as="targetPoint"/>
                    </mxGeometry>
                </mxCell>
                <mxCell id="SRCQ-mJ2vQPZ1YFcp3_C-248" value="&amp;lt;&lt;font style=&quot;font-size: 18px;&quot;&gt;include&lt;/font&gt;&amp;gt;" style="endArrow=block;dashed=1;endFill=0;endSize=12;html=1;rounded=0;exitX=1;exitY=0.5;exitDx=0;exitDy=0;entryX=0.039;entryY=0.341;entryDx=0;entryDy=0;entryPerimeter=0;" parent="1" source="SRCQ-mJ2vQPZ1YFcp3_C-239" target="SRCQ-mJ2vQPZ1YFcp3_C-238" edge="1">
                    <mxGeometry x="-0.0023" width="160" relative="1" as="geometry">
                        <mxPoint x="1583" y="220" as="sourcePoint"/>
                        <mxPoint x="2080" y="150" as="targetPoint"/>
                        <Array as="points"/>
                        <mxPoint as="offset"/>
                    </mxGeometry>
                </mxCell>
                <mxCell id="SRCQ-mJ2vQPZ1YFcp3_C-256" value="&amp;lt;&lt;font style=&quot;font-size: 18px;&quot;&gt;include&lt;/font&gt;&amp;gt;" style="endArrow=block;dashed=1;endFill=0;endSize=12;html=1;rounded=0;exitX=1;exitY=0.5;exitDx=0;exitDy=0;entryX=0.054;entryY=0.691;entryDx=0;entryDy=0;entryPerimeter=0;" parent="1" source="SRCQ-mJ2vQPZ1YFcp3_C-257" target="SRCQ-mJ2vQPZ1YFcp3_C-238" edge="1">
                    <mxGeometry x="-0.0023" width="160" relative="1" as="geometry">
                        <mxPoint x="1582.7499999999782" y="80" as="sourcePoint"/>
                        <mxPoint x="2080" y="150" as="targetPoint"/>
                        <Array as="points"/>
                        <mxPoint as="offset"/>
                    </mxGeometry>
                </mxCell>
                <mxCell id="SRCQ-mJ2vQPZ1YFcp3_C-257" value="&lt;div style=&quot;&quot;&gt;&lt;span style=&quot;color: light-dark(rgb(0, 0, 0), rgb(255, 255, 255)); font-size: 14px; white-space-collapse: preserve; background-color: rgb(255, 255, 255);&quot;&gt;&lt;font face=&quot;Nunito Sans, sans-serif&quot;&gt;manage hotels&lt;/font&gt;&lt;/span&gt;&lt;/div&gt;" style="ellipse;whiteSpace=wrap;html=1;fillColor=#FF9999;align=center;" parent="1" vertex="1">
                    <mxGeometry x="1305.25" y="90" width="159.5" height="60" as="geometry"/>
                </mxCell>
                <mxCell id="SRCQ-mJ2vQPZ1YFcp3_C-258" value="&lt;div style=&quot;&quot;&gt;&lt;span style=&quot;color: light-dark(rgb(0, 0, 0), rgb(255, 255, 255)); font-size: 14px; white-space-collapse: preserve; background-color: rgb(255, 255, 255);&quot;&gt;&lt;font face=&quot;Nunito Sans, sans-serif&quot;&gt;show&lt;/font&gt;&lt;/span&gt;&lt;/div&gt;" style="ellipse;whiteSpace=wrap;html=1;fillColor=#FF9999;align=center;" parent="1" vertex="1">
                    <mxGeometry x="1442.5" y="200" width="86" height="50" as="geometry"/>
                </mxCell>
                <mxCell id="SRCQ-mJ2vQPZ1YFcp3_C-260" value="&lt;div style=&quot;&quot;&gt;&lt;span style=&quot;color: light-dark(rgb(0, 0, 0), rgb(255, 255, 255)); font-size: 14px; white-space-collapse: preserve; background-color: rgb(255, 255, 255);&quot;&gt;&lt;font face=&quot;Nunito Sans, sans-serif&quot;&gt;delete&lt;/font&gt;&lt;/span&gt;&lt;/div&gt;" style="ellipse;whiteSpace=wrap;html=1;fillColor=#FF9999;align=center;" parent="1" vertex="1">
                    <mxGeometry x="1520" y="150" width="86" height="50" as="geometry"/>
                </mxCell>
                <mxCell id="SRCQ-mJ2vQPZ1YFcp3_C-262" value="" style="endArrow=classic;html=1;exitX=0.584;exitY=0.061;exitDx=0;exitDy=0;exitPerimeter=0;" parent="1" source="SRCQ-mJ2vQPZ1YFcp3_C-258" target="SRCQ-mJ2vQPZ1YFcp3_C-257" edge="1">
                    <mxGeometry width="50" height="50" relative="1" as="geometry">
                        <mxPoint x="1287" y="242" as="sourcePoint"/>
                        <mxPoint x="1290" y="195" as="targetPoint"/>
                    </mxGeometry>
                </mxCell>
                <mxCell id="SRCQ-mJ2vQPZ1YFcp3_C-264" value="" style="endArrow=classic;html=1;entryX=1;entryY=1;entryDx=0;entryDy=0;exitX=0;exitY=0;exitDx=0;exitDy=0;" parent="1" source="SRCQ-mJ2vQPZ1YFcp3_C-260" target="SRCQ-mJ2vQPZ1YFcp3_C-257" edge="1">
                    <mxGeometry width="50" height="50" relative="1" as="geometry">
                        <mxPoint x="1424.75" y="356" as="sourcePoint"/>
                        <mxPoint x="1405.75" y="310" as="targetPoint"/>
                    </mxGeometry>
                </mxCell>
                <mxCell id="SRCQ-mJ2vQPZ1YFcp3_C-265" value="" style="endArrow=none;html=1;rounded=0;entryX=0;entryY=0.5;entryDx=0;entryDy=0;" parent="1" source="SRCQ-mJ2vQPZ1YFcp3_C-241" target="SRCQ-mJ2vQPZ1YFcp3_C-257" edge="1">
                    <mxGeometry width="50" height="50" relative="1" as="geometry">
                        <mxPoint x="1100" y="64" as="sourcePoint"/>
                        <mxPoint x="1320" y="50" as="targetPoint"/>
                    </mxGeometry>
                </mxCell>
                <mxCell id="SRCQ-mJ2vQPZ1YFcp3_C-266" value="&lt;div style=&quot;&quot;&gt;&lt;span style=&quot;color: light-dark(rgb(0, 0, 0), rgb(255, 255, 255)); font-size: 14px; white-space-collapse: preserve; background-color: rgb(255, 255, 255);&quot;&gt;&lt;font face=&quot;Nunito Sans, sans-serif&quot;&gt;gerer users&lt;/font&gt;&lt;/span&gt;&lt;/div&gt;" style="ellipse;whiteSpace=wrap;html=1;fillColor=#FF9999;align=center;" parent="1" vertex="1">
                    <mxGeometry x="1300.5" y="395" width="173" height="60" as="geometry"/>
                </mxCell>
                <mxCell id="SRCQ-mJ2vQPZ1YFcp3_C-267" value="&lt;div style=&quot;&quot;&gt;&lt;span style=&quot;color: light-dark(rgb(0, 0, 0), rgb(255, 255, 255)); font-size: 14px; white-space-collapse: preserve; background-color: rgb(255, 255, 255);&quot;&gt;&lt;font face=&quot;Nunito Sans, sans-serif&quot;&gt;view&lt;/font&gt;&lt;/span&gt;&lt;/div&gt;" style="ellipse;whiteSpace=wrap;html=1;fillColor=#FF9999;align=center;" parent="1" vertex="1">
                    <mxGeometry x="1348.5" y="490" width="86" height="50" as="geometry"/>
                </mxCell>
                <mxCell id="SRCQ-mJ2vQPZ1YFcp3_C-268" value="&lt;div style=&quot;&quot;&gt;&lt;span style=&quot;color: light-dark(rgb(0, 0, 0), rgb(255, 255, 255)); font-size: 14px; white-space-collapse: preserve; background-color: rgb(255, 255, 255);&quot;&gt;&lt;font face=&quot;Nunito Sans, sans-serif&quot;&gt;delete&lt;/font&gt;&lt;/span&gt;&lt;/div&gt;" style="ellipse;whiteSpace=wrap;html=1;fillColor=#FF9999;align=center;" parent="1" vertex="1">
                    <mxGeometry x="1460" y="460" width="140" height="50" as="geometry"/>
                </mxCell>
                <mxCell id="SRCQ-mJ2vQPZ1YFcp3_C-269" value="" style="endArrow=classic;html=1;entryX=0.293;entryY=0.934;entryDx=0;entryDy=0;entryPerimeter=0;" parent="1" source="SRCQ-mJ2vQPZ1YFcp3_C-267" target="SRCQ-mJ2vQPZ1YFcp3_C-266" edge="1">
                    <mxGeometry width="50" height="50" relative="1" as="geometry">
                        <mxPoint x="1330" y="333" as="sourcePoint"/>
                        <mxPoint x="1358" y="304" as="targetPoint"/>
                    </mxGeometry>
                </mxCell>
                <mxCell id="SRCQ-mJ2vQPZ1YFcp3_C-270" value="" style="endArrow=classic;html=1;entryX=0.713;entryY=0.969;entryDx=0;entryDy=0;entryPerimeter=0;" parent="1" source="SRCQ-mJ2vQPZ1YFcp3_C-268" target="SRCQ-mJ2vQPZ1YFcp3_C-266" edge="1">
                    <mxGeometry width="50" height="50" relative="1" as="geometry">
                        <mxPoint x="1351" y="520" as="sourcePoint"/>
                        <mxPoint x="1367" y="486" as="targetPoint"/>
                    </mxGeometry>
                </mxCell>
                <mxCell id="SRCQ-mJ2vQPZ1YFcp3_C-271" value="" style="endArrow=none;html=1;rounded=0;entryX=0;entryY=0.5;entryDx=0;entryDy=0;" parent="1" source="SRCQ-mJ2vQPZ1YFcp3_C-241" target="SRCQ-mJ2vQPZ1YFcp3_C-266" edge="1">
                    <mxGeometry width="50" height="50" relative="1" as="geometry">
                        <mxPoint x="1100" y="67" as="sourcePoint"/>
                        <mxPoint x="1321" y="100" as="targetPoint"/>
                    </mxGeometry>
                </mxCell>
                <mxCell id="SRCQ-mJ2vQPZ1YFcp3_C-272" value="&amp;lt;&lt;font style=&quot;font-size: 18px;&quot;&gt;include&lt;/font&gt;&amp;gt;" style="endArrow=block;dashed=1;endFill=0;endSize=12;html=1;rounded=0;exitX=1;exitY=0.5;exitDx=0;exitDy=0;entryX=0.202;entryY=0.896;entryDx=0;entryDy=0;entryPerimeter=0;" parent="1" source="SRCQ-mJ2vQPZ1YFcp3_C-266" target="SRCQ-mJ2vQPZ1YFcp3_C-238" edge="1">
                    <mxGeometry x="-0.0023" width="160" relative="1" as="geometry">
                        <mxPoint x="1480" y="100" as="sourcePoint"/>
                        <mxPoint x="1970" y="71" as="targetPoint"/>
                        <Array as="points">
                            <mxPoint x="1890" y="260"/>
                        </Array>
                        <mxPoint as="offset"/>
                    </mxGeometry>
                </mxCell>
                <mxCell id="SRCQ-mJ2vQPZ1YFcp3_C-285" value="" style="endArrow=none;html=1;rounded=0;entryX=0;entryY=0.5;entryDx=0;entryDy=0;" parent="1" source="SRCQ-mJ2vQPZ1YFcp3_C-160" target="SRCQ-mJ2vQPZ1YFcp3_C-156" edge="1">
                    <mxGeometry width="50" height="50" relative="1" as="geometry">
                        <mxPoint x="1145" y="-2470" as="sourcePoint"/>
                        <mxPoint x="1314" y="-2340" as="targetPoint"/>
                    </mxGeometry>
                </mxCell>
                <mxCell id="SRCQ-mJ2vQPZ1YFcp3_C-286" value="&lt;div style=&quot;text-align: start;&quot;&gt;&lt;font face=&quot;Nunito Sans, sans-serif&quot; color=&quot;#000000&quot;&gt;&lt;span style=&quot;font-size: 14px; white-space-collapse: preserve; background-color: rgb(255, 255, 255);&quot;&gt;from map&lt;/span&gt;&lt;/font&gt;&lt;/div&gt;" style="ellipse;whiteSpace=wrap;html=1;fillColor=#99FFFF;" parent="1" vertex="1">
                    <mxGeometry x="1530" y="-2680" width="150" height="60" as="geometry"/>
                </mxCell>
                <mxCell id="SRCQ-mJ2vQPZ1YFcp3_C-287" value="" style="endArrow=classic;html=1;rounded=0;entryX=0.952;entryY=0.708;entryDx=0;entryDy=0;exitX=0;exitY=0.5;exitDx=0;exitDy=0;entryPerimeter=0;" parent="1" source="SRCQ-mJ2vQPZ1YFcp3_C-286" target="SRCQ-mJ2vQPZ1YFcp3_C-156" edge="1">
                    <mxGeometry width="50" height="50" relative="1" as="geometry">
                        <mxPoint x="1530" y="-2460" as="sourcePoint"/>
                        <mxPoint x="1457" y="-2489" as="targetPoint"/>
                    </mxGeometry>
                </mxCell>
                <mxCell id="SRCQ-mJ2vQPZ1YFcp3_C-288" value="" style="endArrow=none;html=1;rounded=0;entryX=0;entryY=0.5;entryDx=0;entryDy=0;exitX=1;exitY=0.3333333333333333;exitDx=0;exitDy=0;exitPerimeter=0;" parent="1" source="SRCQ-mJ2vQPZ1YFcp3_C-160" target="SRCQ-mJ2vQPZ1YFcp3_C-155" edge="1">
                    <mxGeometry width="50" height="50" relative="1" as="geometry">
                        <mxPoint x="1140" y="-2036" as="sourcePoint"/>
                        <mxPoint x="1314" y="-2340" as="targetPoint"/>
                    </mxGeometry>
                </mxCell>
                <mxCell id="SRCQ-mJ2vQPZ1YFcp3_C-289" value="&lt;div style=&quot;text-align: start;&quot;&gt;&lt;font face=&quot;Nunito Sans, sans-serif&quot; color=&quot;#000000&quot;&gt;&lt;span style=&quot;font-size: 14px; white-space-collapse: preserve; background-color: rgb(255, 255, 255);&quot;&gt;from input (search engine)&lt;/span&gt;&lt;/font&gt;&lt;/div&gt;" style="ellipse;whiteSpace=wrap;html=1;fillColor=#99FFFF;" parent="1" vertex="1">
                    <mxGeometry x="1540" y="-2750" width="200" height="60" as="geometry"/>
                </mxCell>
                <mxCell id="SRCQ-mJ2vQPZ1YFcp3_C-290" value="" style="endArrow=classic;html=1;rounded=0;entryX=1;entryY=0.5;entryDx=0;entryDy=0;exitX=0;exitY=0.5;exitDx=0;exitDy=0;" parent="1" source="SRCQ-mJ2vQPZ1YFcp3_C-289" target="SRCQ-mJ2vQPZ1YFcp3_C-156" edge="1">
                    <mxGeometry width="50" height="50" relative="1" as="geometry">
                        <mxPoint x="1520" y="-2280" as="sourcePoint"/>
                        <mxPoint x="1456" y="-2328" as="targetPoint"/>
                    </mxGeometry>
                </mxCell>
                <mxCell id="TeEnYAT1AzZHddWZ_Jz3-148" value="&lt;div style=&quot;text-align: start;&quot;&gt;&lt;font face=&quot;Nunito Sans, sans-serif&quot; color=&quot;#000000&quot;&gt;&lt;span style=&quot;font-size: 14px; white-space-collapse: preserve; background-color: rgb(255, 255, 255);&quot;&gt;update profil detail&lt;/span&gt;&lt;/font&gt;&lt;/div&gt;" style="ellipse;whiteSpace=wrap;html=1;fillColor=#CC99FF;" parent="1" vertex="1">
                    <mxGeometry x="1322.75" y="-1980" width="150" height="60" as="geometry"/>
                </mxCell>
                <mxCell id="TeEnYAT1AzZHddWZ_Jz3-149" value="" style="endArrow=none;html=1;rounded=0;entryX=0;entryY=0.5;entryDx=0;entryDy=0;" parent="1" source="SRCQ-mJ2vQPZ1YFcp3_C-160" target="TeEnYAT1AzZHddWZ_Jz3-148" edge="1">
                    <mxGeometry width="50" height="50" relative="1" as="geometry">
                        <mxPoint x="1140" y="-1905" as="sourcePoint"/>
                        <mxPoint x="1329" y="-1752" as="targetPoint"/>
                    </mxGeometry>
                </mxCell>
                <mxCell id="TeEnYAT1AzZHddWZ_Jz3-150" value="&lt;div style=&quot;&quot;&gt;&lt;font face=&quot;Nunito Sans, sans-serif&quot; color=&quot;#000000&quot;&gt;&lt;span style=&quot;font-size: 14px; white-space-collapse: preserve; background-color: rgb(255, 255, 255);&quot;&gt;reset password by email&lt;/span&gt;&lt;/font&gt;&lt;/div&gt;" style="ellipse;whiteSpace=wrap;html=1;fillColor=#CC99FF;align=center;" parent="1" vertex="1">
                    <mxGeometry x="1323.5" y="-1900" width="150" height="60" as="geometry"/>
                </mxCell>
                <mxCell id="TeEnYAT1AzZHddWZ_Jz3-151" value="" style="endArrow=none;html=1;rounded=0;entryX=0;entryY=0.5;entryDx=0;entryDy=0;" parent="1" source="SRCQ-mJ2vQPZ1YFcp3_C-160" target="TeEnYAT1AzZHddWZ_Jz3-150" edge="1">
                    <mxGeometry width="50" height="50" relative="1" as="geometry">
                        <mxPoint x="1140" y="-1898" as="sourcePoint"/>
                        <mxPoint x="1327" y="-1660" as="targetPoint"/>
                    </mxGeometry>
                </mxCell>
                <mxCell id="4Gaju7PyvdOcvN30CBUa-149" value="&lt;div style=&quot;&quot;&gt;&lt;font face=&quot;Nunito Sans, sans-serif&quot; color=&quot;#000000&quot;&gt;&lt;span style=&quot;font-size: 14px; white-space-collapse: preserve; background-color: rgb(255, 255, 255);&quot;&gt;whichlists&lt;/span&gt;&lt;/font&gt;&lt;/div&gt;" style="ellipse;whiteSpace=wrap;html=1;fillColor=#CC99FF;align=center;" parent="1" vertex="1">
                    <mxGeometry x="1326" y="-1820" width="150" height="60" as="geometry"/>
                </mxCell>
                <mxCell id="4Gaju7PyvdOcvN30CBUa-151" value="" style="endArrow=none;html=1;rounded=0;entryX=0;entryY=0.5;entryDx=0;entryDy=0;exitX=0.5;exitY=0.5;exitDx=0;exitDy=0;exitPerimeter=0;" parent="1" source="SRCQ-mJ2vQPZ1YFcp3_C-160" target="4Gaju7PyvdOcvN30CBUa-149" edge="1">
                    <mxGeometry width="50" height="50" relative="1" as="geometry">
                        <mxPoint x="1143" y="-2256" as="sourcePoint"/>
                        <mxPoint x="1347" y="-1830" as="targetPoint"/>
                    </mxGeometry>
                </mxCell>
                <mxCell id="4Gaju7PyvdOcvN30CBUa-161" value="&amp;lt;&lt;font style=&quot;font-size: 18px;&quot;&gt;include&lt;/font&gt;&amp;gt;" style="endArrow=block;dashed=1;endFill=0;endSize=12;html=1;rounded=0;entryX=0.037;entryY=0.712;entryDx=0;entryDy=0;exitX=1;exitY=0.5;exitDx=0;exitDy=0;entryPerimeter=0;" parent="1" source="SRCQ-mJ2vQPZ1YFcp3_C-162" edge="1">
                    <mxGeometry x="-0.0023" width="160" relative="1" as="geometry">
                        <mxPoint x="1458" y="-2308" as="sourcePoint"/>
                        <mxPoint x="2007" y="-2432" as="targetPoint"/>
                        <Array as="points">
                            <mxPoint x="1740" y="-2220"/>
                        </Array>
                        <mxPoint as="offset"/>
                    </mxGeometry>
                </mxCell>
                <mxCell id="4Gaju7PyvdOcvN30CBUa-162" value="&amp;lt;&lt;font style=&quot;font-size: 18px;&quot;&gt;include&lt;/font&gt;&amp;gt;" style="endArrow=block;dashed=1;endFill=0;endSize=12;html=1;rounded=0;entryX=0.233;entryY=0.968;entryDx=0;entryDy=0;exitX=1;exitY=0.5;exitDx=0;exitDy=0;entryPerimeter=0;" parent="1" source="SRCQ-mJ2vQPZ1YFcp3_C-163" target="SRCQ-mJ2vQPZ1YFcp3_C-150" edge="1">
                    <mxGeometry x="-0.0023" width="160" relative="1" as="geometry">
                        <mxPoint x="1490" y="-2197" as="sourcePoint"/>
                        <mxPoint x="2017" y="-2422" as="targetPoint"/>
                        <Array as="points">
                            <mxPoint x="1760" y="-2170"/>
                        </Array>
                        <mxPoint as="offset"/>
                    </mxGeometry>
                </mxCell>
                <mxCell id="4Gaju7PyvdOcvN30CBUa-163" value="&amp;lt;&lt;font style=&quot;font-size: 18px;&quot;&gt;include&lt;/font&gt;&amp;gt;" style="endArrow=block;dashed=1;endFill=0;endSize=12;html=1;rounded=0;entryX=0.233;entryY=0.968;entryDx=0;entryDy=0;exitX=1;exitY=0.5;exitDx=0;exitDy=0;entryPerimeter=0;" parent="1" source="TeEnYAT1AzZHddWZ_Jz3-148" edge="1">
                    <mxGeometry x="-0.0023" width="160" relative="1" as="geometry">
                        <mxPoint x="1500" y="-2107" as="sourcePoint"/>
                        <mxPoint x="2042" y="-2417" as="targetPoint"/>
                        <Array as="points">
                            <mxPoint x="1790" y="-2120"/>
                        </Array>
                        <mxPoint as="offset"/>
                    </mxGeometry>
                </mxCell>
                <mxCell id="4Gaju7PyvdOcvN30CBUa-164" value="&amp;lt;&lt;font style=&quot;font-size: 18px;&quot;&gt;include&lt;/font&gt;&amp;gt;" style="endArrow=block;dashed=1;endFill=0;endSize=12;html=1;rounded=0;entryX=0.372;entryY=0.948;entryDx=0;entryDy=0;exitX=1;exitY=0.5;exitDx=0;exitDy=0;entryPerimeter=0;" parent="1" source="TeEnYAT1AzZHddWZ_Jz3-150" target="SRCQ-mJ2vQPZ1YFcp3_C-150" edge="1">
                    <mxGeometry x="-0.0023" width="160" relative="1" as="geometry">
                        <mxPoint x="1510" y="-2097" as="sourcePoint"/>
                        <mxPoint x="2052" y="-2407" as="targetPoint"/>
                        <Array as="points">
                            <mxPoint x="1660" y="-1980"/>
                            <mxPoint x="1830" y="-2100"/>
                            <mxPoint x="1960" y="-2250"/>
                        </Array>
                        <mxPoint as="offset"/>
                    </mxGeometry>
                </mxCell>
                <mxCell id="4Gaju7PyvdOcvN30CBUa-166" value="&amp;lt;&lt;font style=&quot;font-size: 18px;&quot;&gt;include&lt;/font&gt;&amp;gt;" style="endArrow=block;dashed=1;endFill=0;endSize=12;html=1;rounded=0;entryX=0.5;entryY=1;entryDx=0;entryDy=0;exitX=1;exitY=0.5;exitDx=0;exitDy=0;" parent="1" source="4Gaju7PyvdOcvN30CBUa-149" target="SRCQ-mJ2vQPZ1YFcp3_C-150" edge="1">
                    <mxGeometry x="-0.0023" width="160" relative="1" as="geometry">
                        <mxPoint x="1530" y="-2077" as="sourcePoint"/>
                        <mxPoint x="2072" y="-2387" as="targetPoint"/>
                        <Array as="points">
                            <mxPoint x="1730" y="-1910"/>
                            <mxPoint x="1920" y="-2050"/>
                            <mxPoint x="2030" y="-2230"/>
                        </Array>
                        <mxPoint as="offset"/>
                    </mxGeometry>
                </mxCell>
                <mxCell id="2" value="&lt;div style=&quot;text-align: start;&quot;&gt;&lt;font face=&quot;Nunito Sans, sans-serif&quot; color=&quot;#000000&quot;&gt;&lt;span style=&quot;font-size: 14px; white-space-collapse: preserve; background-color: rgb(255, 255, 255);&quot;&gt;view rooms detail&lt;/span&gt;&lt;/font&gt;&lt;/div&gt;" style="ellipse;whiteSpace=wrap;html=1;fillColor=#CC99FF;" vertex="1" parent="1">
                    <mxGeometry x="1323.5" y="-2400" width="150" height="60" as="geometry"/>
                </mxCell>
                <mxCell id="3" value="" style="endArrow=none;html=1;rounded=0;exitX=0.5;exitY=0.5;exitDx=0;exitDy=0;exitPerimeter=0;entryX=0;entryY=0.5;entryDx=0;entryDy=0;" edge="1" parent="1" source="SRCQ-mJ2vQPZ1YFcp3_C-160" target="2">
                    <mxGeometry width="50" height="50" relative="1" as="geometry">
                        <mxPoint x="1160" y="-2291" as="sourcePoint"/>
                        <mxPoint x="1334" y="-2447" as="targetPoint"/>
                    </mxGeometry>
                </mxCell>
                <mxCell id="5" value="&lt;div style=&quot;&quot;&gt;&lt;span style=&quot;color: light-dark(rgb(0, 0, 0), rgb(255, 255, 255)); font-size: 14px; white-space-collapse: preserve; background-color: rgb(255, 255, 255);&quot;&gt;&lt;font face=&quot;Nunito Sans, sans-serif&quot;&gt;view&lt;/font&gt;&lt;/span&gt;&lt;/div&gt;" style="ellipse;whiteSpace=wrap;html=1;fillColor=#CCFF99;align=center;" vertex="1" parent="1">
                    <mxGeometry x="1240" y="-1010" width="106.5" height="50" as="geometry"/>
                </mxCell>
                <mxCell id="6" value="" style="endArrow=classic;html=1;rounded=0;" edge="1" parent="1" source="5" target="SRCQ-mJ2vQPZ1YFcp3_C-228">
                    <mxGeometry width="50" height="50" relative="1" as="geometry">
                        <mxPoint x="1378" y="-940" as="sourcePoint"/>
                        <mxPoint x="1386" y="-1030" as="targetPoint"/>
                    </mxGeometry>
                </mxCell>
                <mxCell id="7" value="&lt;div style=&quot;text-align: start;&quot;&gt;&lt;font face=&quot;Nunito Sans, sans-serif&quot; color=&quot;#000000&quot;&gt;&lt;span style=&quot;font-size: 14px; white-space-collapse: preserve; background-color: rgb(255, 255, 255);&quot;&gt;gerer rooms&lt;/span&gt;&lt;/font&gt;&lt;/div&gt;" style="ellipse;whiteSpace=wrap;html=1;fillColor=#CCFF99;" vertex="1" parent="1">
                    <mxGeometry x="1284.25" y="-890" width="188.5" height="60" as="geometry"/>
                </mxCell>
                <mxCell id="8" value="&lt;div style=&quot;&quot;&gt;&lt;span style=&quot;color: light-dark(rgb(0, 0, 0), rgb(255, 255, 255)); font-size: 14px; white-space-collapse: preserve; background-color: rgb(255, 255, 255);&quot;&gt;&lt;font face=&quot;Nunito Sans, sans-serif&quot;&gt;view&lt;/font&gt;&lt;/span&gt;&lt;/div&gt;" style="ellipse;whiteSpace=wrap;html=1;fillColor=#CCFF99;align=center;" vertex="1" parent="1">
                    <mxGeometry x="1240" y="-790" width="106.5" height="50" as="geometry"/>
                </mxCell>
                <mxCell id="9" value="" style="endArrow=classic;html=1;rounded=0;" edge="1" source="8" target="7" parent="1">
                    <mxGeometry width="50" height="50" relative="1" as="geometry">
                        <mxPoint x="1378" y="-720" as="sourcePoint"/>
                        <mxPoint x="1386" y="-810" as="targetPoint"/>
                    </mxGeometry>
                </mxCell>
                <mxCell id="10" value="" style="endArrow=classic;html=1;rounded=0;exitX=0.5;exitY=0;exitDx=0;exitDy=0;" edge="1" source="11" target="7" parent="1">
                    <mxGeometry width="50" height="50" relative="1" as="geometry">
                        <mxPoint x="1506.5" y="-750" as="sourcePoint"/>
                        <mxPoint x="1433.5" y="-779" as="targetPoint"/>
                    </mxGeometry>
                </mxCell>
                <mxCell id="11" value="&lt;div style=&quot;&quot;&gt;&lt;span style=&quot;color: light-dark(rgb(0, 0, 0), rgb(255, 255, 255)); font-size: 14px; white-space-collapse: preserve; background-color: rgb(255, 255, 255);&quot;&gt;&lt;font face=&quot;Nunito Sans, sans-serif&quot;&gt;remove&lt;/font&gt;&lt;/span&gt;&lt;/div&gt;" style="ellipse;whiteSpace=wrap;html=1;fillColor=#CCFF99;align=center;" vertex="1" parent="1">
                    <mxGeometry x="1314.25" y="-730" width="106.5" height="50" as="geometry"/>
                </mxCell>
                <mxCell id="12" value="&lt;div style=&quot;text-align: start;&quot;&gt;&lt;font face=&quot;Nunito Sans, sans-serif&quot; color=&quot;#000000&quot;&gt;&lt;span style=&quot;font-size: 14px; white-space-collapse: preserve; background-color: rgb(255, 255, 255);&quot;&gt;add room&lt;/span&gt;&lt;/font&gt;&lt;/div&gt;" style="ellipse;whiteSpace=wrap;html=1;fillColor=#CCFF99;" vertex="1" parent="1">
                    <mxGeometry x="1412" y="-770" width="150" height="60" as="geometry"/>
                </mxCell>
                <mxCell id="13" value="" style="endArrow=classic;html=1;rounded=0;entryX=0.604;entryY=1.024;entryDx=0;entryDy=0;exitX=0.431;exitY=-0.015;exitDx=0;exitDy=0;exitPerimeter=0;entryPerimeter=0;" edge="1" source="12" target="7" parent="1">
                    <mxGeometry width="50" height="50" relative="1" as="geometry">
                        <mxPoint x="1343" y="-748" as="sourcePoint"/>
                        <mxPoint x="1353" y="-809" as="targetPoint"/>
                    </mxGeometry>
                </mxCell>
                <mxCell id="14" value="&lt;div style=&quot;&quot;&gt;&lt;span style=&quot;color: light-dark(rgb(0, 0, 0), rgb(255, 255, 255)); font-size: 14px; white-space-collapse: preserve; background-color: rgb(255, 255, 255);&quot;&gt;&lt;font face=&quot;Nunito Sans, sans-serif&quot;&gt;update room detail&lt;/font&gt;&lt;/span&gt;&lt;/div&gt;" style="ellipse;whiteSpace=wrap;html=1;fillColor=#CCFF99;align=center;" vertex="1" parent="1">
                    <mxGeometry x="1520" y="-820" width="150" height="50" as="geometry"/>
                </mxCell>
                <mxCell id="15" value="" style="endArrow=classic;html=1;rounded=0;entryX=0.936;entryY=0.703;entryDx=0;entryDy=0;exitX=0;exitY=0;exitDx=0;exitDy=0;entryPerimeter=0;" edge="1" source="14" target="7" parent="1">
                    <mxGeometry width="50" height="50" relative="1" as="geometry">
                        <mxPoint x="1454" y="-745" as="sourcePoint"/>
                        <mxPoint x="1433" y="-800" as="targetPoint"/>
                    </mxGeometry>
                </mxCell>
                <mxCell id="16" value="" style="endArrow=none;html=1;rounded=0;exitX=0.5;exitY=0.5;exitDx=0;exitDy=0;exitPerimeter=0;" edge="1" parent="1" source="SRCQ-mJ2vQPZ1YFcp3_C-205" target="7">
                    <mxGeometry width="50" height="50" relative="1" as="geometry">
                        <mxPoint x="1140" y="-1134" as="sourcePoint"/>
                        <mxPoint x="1294" y="-1070" as="targetPoint"/>
                        <Array as="points">
                            <mxPoint x="1170" y="-930"/>
                        </Array>
                    </mxGeometry>
                </mxCell>
                <mxCell id="17" value="&lt;div style=&quot;text-align: start;&quot;&gt;&lt;font face=&quot;Nunito Sans, sans-serif&quot; color=&quot;#000000&quot;&gt;&lt;span style=&quot;font-size: 14px; white-space-collapse: preserve; background-color: rgb(255, 255, 255);&quot;&gt;view booking&lt;/span&gt;&lt;/font&gt;&lt;/div&gt;" style="ellipse;whiteSpace=wrap;html=1;fillColor=#CCFF99;" vertex="1" parent="1">
                    <mxGeometry x="1292.5" y="-660" width="150" height="60" as="geometry"/>
                </mxCell>
                <mxCell id="18" value="&lt;div style=&quot;text-align: start;&quot;&gt;&lt;font face=&quot;Nunito Sans, sans-serif&quot; color=&quot;#000000&quot;&gt;&lt;span style=&quot;font-size: 14px; white-space-collapse: preserve; background-color: rgb(255, 255, 255);&quot;&gt;hotel booking&lt;/span&gt;&lt;/font&gt;&lt;/div&gt;" style="ellipse;whiteSpace=wrap;html=1;fillColor=#CCFF99;" vertex="1" parent="1">
                    <mxGeometry x="1500" y="-680" width="150" height="60" as="geometry"/>
                </mxCell>
                <mxCell id="19" value="&lt;div style=&quot;text-align: start;&quot;&gt;&lt;font face=&quot;Nunito Sans, sans-serif&quot; color=&quot;#000000&quot;&gt;&lt;span style=&quot;font-size: 14px; white-space-collapse: preserve; background-color: rgb(255, 255, 255);&quot;&gt;globalbooking&lt;/span&gt;&lt;/font&gt;&lt;/div&gt;" style="ellipse;whiteSpace=wrap;html=1;fillColor=#CCFF99;" vertex="1" parent="1">
                    <mxGeometry x="1473.5" y="-600" width="150" height="60" as="geometry"/>
                </mxCell>
                <mxCell id="20" value="" style="endArrow=classic;html=1;rounded=0;" edge="1" parent="1" source="18" target="17">
                    <mxGeometry width="50" height="50" relative="1" as="geometry">
                        <mxPoint x="1531" y="-624" as="sourcePoint"/>
                        <mxPoint x="1451" y="-660" as="targetPoint"/>
                    </mxGeometry>
                </mxCell>
                <mxCell id="21" value="" style="endArrow=classic;html=1;rounded=0;" edge="1" parent="1" source="19" target="17">
                    <mxGeometry width="50" height="50" relative="1" as="geometry">
                        <mxPoint x="1510" y="-620" as="sourcePoint"/>
                        <mxPoint x="1453" y="-620" as="targetPoint"/>
                    </mxGeometry>
                </mxCell>
                <mxCell id="22" value="" style="endArrow=none;html=1;rounded=0;exitX=0.5;exitY=0.5;exitDx=0;exitDy=0;exitPerimeter=0;entryX=0;entryY=0.5;entryDx=0;entryDy=0;" edge="1" parent="1" target="17">
                    <mxGeometry width="50" height="50" relative="1" as="geometry">
                        <mxPoint x="1125" y="-1140" as="sourcePoint"/>
                        <mxPoint x="1324" y="-872" as="targetPoint"/>
                        <Array as="points">
                            <mxPoint x="1150" y="-870"/>
                        </Array>
                    </mxGeometry>
                </mxCell>
                <mxCell id="23" value="&amp;lt;&lt;font style=&quot;font-size: 18px;&quot;&gt;include&lt;/font&gt;&amp;gt;" style="endArrow=block;dashed=1;endFill=0;endSize=12;html=1;rounded=0;entryX=0.054;entryY=0.691;entryDx=0;entryDy=0;entryPerimeter=0;" edge="1" parent="1" source="7">
                    <mxGeometry x="-0.0023" width="160" relative="1" as="geometry">
                        <mxPoint x="1483" y="-1070" as="sourcePoint"/>
                        <mxPoint x="1950" y="-1184" as="targetPoint"/>
                        <Array as="points">
                            <mxPoint x="1740" y="-940"/>
                        </Array>
                        <mxPoint as="offset"/>
                    </mxGeometry>
                </mxCell>
                <mxCell id="24" value="&amp;lt;&lt;font style=&quot;font-size: 18px;&quot;&gt;include&lt;/font&gt;&amp;gt;" style="endArrow=block;dashed=1;endFill=0;endSize=12;html=1;rounded=0;entryX=0.054;entryY=0.691;entryDx=0;entryDy=0;entryPerimeter=0;" edge="1" parent="1" source="17">
                    <mxGeometry x="-0.0023" width="160" relative="1" as="geometry">
                        <mxPoint x="1466" y="-867" as="sourcePoint"/>
                        <mxPoint x="1960" y="-1174" as="targetPoint"/>
                        <Array as="points">
                            <mxPoint x="1830" y="-800"/>
                        </Array>
                        <mxPoint as="offset"/>
                    </mxGeometry>
                </mxCell>
                <mxCell id="26" value="&lt;div style=&quot;&quot;&gt;&lt;span style=&quot;color: light-dark(rgb(0, 0, 0), rgb(255, 255, 255)); font-size: 14px; white-space-collapse: preserve; background-color: rgb(255, 255, 255);&quot;&gt;&lt;font face=&quot;Nunito Sans, sans-serif&quot;&gt;manage rooms&lt;/font&gt;&lt;/span&gt;&lt;/div&gt;" style="ellipse;whiteSpace=wrap;html=1;fillColor=#FF9999;align=center;" vertex="1" parent="1">
                    <mxGeometry x="1283" y="240" width="159.5" height="60" as="geometry"/>
                </mxCell>
                <mxCell id="27" value="" style="endArrow=classic;html=1;" edge="1" source="30" target="26" parent="1">
                    <mxGeometry width="50" height="50" relative="1" as="geometry">
                        <mxPoint x="1477.768" y="390" as="sourcePoint"/>
                        <mxPoint x="1286" y="340" as="targetPoint"/>
                    </mxGeometry>
                </mxCell>
                <mxCell id="28" value="" style="endArrow=classic;html=1;" edge="1" source="29" target="26" parent="1">
                    <mxGeometry width="50" height="50" relative="1" as="geometry">
                        <mxPoint x="1420.75" y="516" as="sourcePoint"/>
                        <mxPoint x="1401.75" y="470" as="targetPoint"/>
                    </mxGeometry>
                </mxCell>
                <mxCell id="29" value="&lt;div style=&quot;&quot;&gt;&lt;span style=&quot;color: light-dark(rgb(0, 0, 0), rgb(255, 255, 255)); font-size: 14px; white-space-collapse: preserve; background-color: rgb(255, 255, 255);&quot;&gt;&lt;font face=&quot;Nunito Sans, sans-serif&quot;&gt;delete&lt;/font&gt;&lt;/span&gt;&lt;/div&gt;" style="ellipse;whiteSpace=wrap;html=1;fillColor=#FF9999;align=center;" vertex="1" parent="1">
                    <mxGeometry x="1476" y="270" width="86" height="50" as="geometry"/>
                </mxCell>
                <mxCell id="30" value="&lt;div style=&quot;&quot;&gt;&lt;span style=&quot;color: light-dark(rgb(0, 0, 0), rgb(255, 255, 255)); font-size: 14px; white-space-collapse: preserve; background-color: rgb(255, 255, 255);&quot;&gt;&lt;font face=&quot;Nunito Sans, sans-serif&quot;&gt;show&lt;/font&gt;&lt;/span&gt;&lt;/div&gt;" style="ellipse;whiteSpace=wrap;html=1;fillColor=#FF9999;align=center;" vertex="1" parent="1">
                    <mxGeometry x="1442.5" y="330" width="86" height="50" as="geometry"/>
                </mxCell>
                <mxCell id="31" value="" style="endArrow=none;html=1;rounded=0;exitX=0.5;exitY=0.5;exitDx=0;exitDy=0;exitPerimeter=0;" edge="1" parent="1" source="SRCQ-mJ2vQPZ1YFcp3_C-241" target="26">
                    <mxGeometry width="50" height="50" relative="1" as="geometry">
                        <mxPoint x="1100" y="67" as="sourcePoint"/>
                        <mxPoint x="1320" y="100" as="targetPoint"/>
                    </mxGeometry>
                </mxCell>
                <mxCell id="41" value="&lt;div style=&quot;&quot;&gt;&lt;span style=&quot;color: light-dark(rgb(0, 0, 0), rgb(255, 255, 255)); font-size: 14px; white-space-collapse: preserve; background-color: rgb(255, 255, 255);&quot;&gt;&lt;font face=&quot;Nunito Sans, sans-serif&quot;&gt;view booking&lt;/font&gt;&lt;/span&gt;&lt;/div&gt;" style="ellipse;whiteSpace=wrap;html=1;fillColor=#FF9999;align=center;" vertex="1" parent="1">
                    <mxGeometry x="1301.75" y="10" width="159.5" height="60" as="geometry"/>
                </mxCell>
                <mxCell id="42" value="" style="endArrow=none;html=1;rounded=0;exitX=0.667;exitY=0.417;exitDx=0;exitDy=0;exitPerimeter=0;" edge="1" parent="1" source="SRCQ-mJ2vQPZ1YFcp3_C-241" target="41">
                    <mxGeometry width="50" height="50" relative="1" as="geometry">
                        <mxPoint x="1085" y="65" as="sourcePoint"/>
                        <mxPoint x="1323" y="186" as="targetPoint"/>
                    </mxGeometry>
                </mxCell>
                <mxCell id="50" value="&lt;div style=&quot;&quot;&gt;&lt;span style=&quot;color: light-dark(rgb(0, 0, 0), rgb(255, 255, 255)); font-size: 14px; white-space-collapse: preserve; background-color: rgb(255, 255, 255);&quot;&gt;&lt;font face=&quot;Nunito Sans, sans-serif&quot;&gt;gerer tags&lt;/font&gt;&lt;/span&gt;&lt;/div&gt;" style="ellipse;whiteSpace=wrap;html=1;fillColor=#FF9999;align=center;" vertex="1" parent="1">
                    <mxGeometry x="1306.5" y="600" width="173" height="60" as="geometry"/>
                </mxCell>
                <mxCell id="51" value="&lt;div style=&quot;&quot;&gt;&lt;span style=&quot;color: light-dark(rgb(0, 0, 0), rgb(255, 255, 255)); font-size: 14px; white-space-collapse: preserve; background-color: rgb(255, 255, 255);&quot;&gt;&lt;font face=&quot;Nunito Sans, sans-serif&quot;&gt;view&lt;/font&gt;&lt;/span&gt;&lt;/div&gt;" style="ellipse;whiteSpace=wrap;html=1;fillColor=#FF9999;align=center;" vertex="1" parent="1">
                    <mxGeometry x="1318" y="695" width="86" height="50" as="geometry"/>
                </mxCell>
                <mxCell id="52" value="&lt;div style=&quot;&quot;&gt;&lt;span style=&quot;color: light-dark(rgb(0, 0, 0), rgb(255, 255, 255)); font-size: 14px; white-space-collapse: preserve; background-color: rgb(255, 255, 255);&quot;&gt;&lt;font face=&quot;Nunito Sans, sans-serif&quot;&gt;delete&lt;/font&gt;&lt;/span&gt;&lt;/div&gt;" style="ellipse;whiteSpace=wrap;html=1;fillColor=#FF9999;align=center;" vertex="1" parent="1">
                    <mxGeometry x="1412" y="710" width="140" height="50" as="geometry"/>
                </mxCell>
                <mxCell id="53" value="" style="endArrow=classic;html=1;entryX=0.293;entryY=0.934;entryDx=0;entryDy=0;entryPerimeter=0;" edge="1" parent="1" source="51" target="50">
                    <mxGeometry width="50" height="50" relative="1" as="geometry">
                        <mxPoint x="1336" y="538" as="sourcePoint"/>
                        <mxPoint x="1364" y="509" as="targetPoint"/>
                    </mxGeometry>
                </mxCell>
                <mxCell id="54" value="" style="endArrow=classic;html=1;entryX=0.713;entryY=0.969;entryDx=0;entryDy=0;entryPerimeter=0;" edge="1" parent="1" source="52" target="50">
                    <mxGeometry width="50" height="50" relative="1" as="geometry">
                        <mxPoint x="1357" y="725" as="sourcePoint"/>
                        <mxPoint x="1373" y="691" as="targetPoint"/>
                    </mxGeometry>
                </mxCell>
                <mxCell id="55" value="&lt;div style=&quot;&quot;&gt;&lt;span style=&quot;color: light-dark(rgb(0, 0, 0), rgb(255, 255, 255)); font-size: 14px; white-space-collapse: preserve; background-color: rgb(255, 255, 255);&quot;&gt;&lt;font face=&quot;Nunito Sans, sans-serif&quot;&gt;update&lt;/font&gt;&lt;/span&gt;&lt;/div&gt;" style="ellipse;whiteSpace=wrap;html=1;fillColor=#FF9999;align=center;" vertex="1" parent="1">
                    <mxGeometry x="1520" y="640" width="140" height="50" as="geometry"/>
                </mxCell>
                <mxCell id="56" value="&lt;div style=&quot;&quot;&gt;&lt;span style=&quot;color: light-dark(rgb(0, 0, 0), rgb(255, 255, 255)); font-size: 14px; white-space-collapse: preserve; background-color: rgb(255, 255, 255);&quot;&gt;&lt;font face=&quot;Nunito Sans, sans-serif&quot;&gt;add&lt;/font&gt;&lt;/span&gt;&lt;/div&gt;" style="ellipse;whiteSpace=wrap;html=1;fillColor=#FF9999;align=center;" vertex="1" parent="1">
                    <mxGeometry x="1510" y="560" width="140" height="50" as="geometry"/>
                </mxCell>
                <mxCell id="57" value="" style="endArrow=classic;html=1;" edge="1" parent="1" source="55" target="50">
                    <mxGeometry width="50" height="50" relative="1" as="geometry">
                        <mxPoint x="1475" y="721" as="sourcePoint"/>
                        <mxPoint x="1440" y="668" as="targetPoint"/>
                    </mxGeometry>
                </mxCell>
                <mxCell id="58" value="" style="endArrow=classic;html=1;" edge="1" parent="1" source="56" target="50">
                    <mxGeometry width="50" height="50" relative="1" as="geometry">
                        <mxPoint x="1537" y="664" as="sourcePoint"/>
                        <mxPoint x="1480" y="654" as="targetPoint"/>
                    </mxGeometry>
                </mxCell>
                <mxCell id="59" value="&amp;lt;&lt;font style=&quot;font-size: 18px;&quot;&gt;include&lt;/font&gt;&amp;gt;" style="endArrow=block;dashed=1;endFill=0;endSize=12;html=1;rounded=0;entryX=0.202;entryY=0.896;entryDx=0;entryDy=0;entryPerimeter=0;" edge="1" parent="1" source="50">
                    <mxGeometry x="-0.0023" width="160" relative="1" as="geometry">
                        <mxPoint x="1484" y="435" as="sourcePoint"/>
                        <mxPoint x="1996" y="84" as="targetPoint"/>
                        <Array as="points">
                            <mxPoint x="1680" y="470"/>
                            <mxPoint x="1900" y="270"/>
                        </Array>
                        <mxPoint as="offset"/>
                    </mxGeometry>
                </mxCell>
                <mxCell id="60" value="&amp;lt;&lt;font style=&quot;font-size: 18px;&quot;&gt;include&lt;/font&gt;&amp;gt;" style="endArrow=block;dashed=1;endFill=0;endSize=12;html=1;rounded=0;entryX=0.202;entryY=0.896;entryDx=0;entryDy=0;entryPerimeter=0;" edge="1" parent="1" source="26">
                    <mxGeometry x="-0.0023" width="160" relative="1" as="geometry">
                        <mxPoint x="1484" y="435" as="sourcePoint"/>
                        <mxPoint x="1996" y="84" as="targetPoint"/>
                        <Array as="points">
                            <mxPoint x="1750" y="240"/>
                        </Array>
                        <mxPoint as="offset"/>
                    </mxGeometry>
                </mxCell>
            </root>
        </mxGraphModel>
    </diagram>
</mxfile>